<svg width="80" height="81" viewBox="0 0 80 81" fill="none" xmlns="http://www.w3.org/2000/svg">
<path d="M9.99998 0.464844H0V10.4649H9.99998V0.464844Z" fill="#073945"/>
<path d="M20 0.464844H10V10.4649H20V0.464844Z" fill="#A60202"/>
<path d="M30 0.464844H20V10.4649H30V0.464844Z" fill="#0D3E49"/>
<path d="M40 0.464844H30V10.4649H40V0.464844Z" fill="#0D3E49"/>
<path d="M50 0.464844H40V10.4649H50V0.464844Z" fill="#053440"/>
<path d="M60 0.464844H50V10.4649H60V0.464844Z" fill="#0B2830"/>
<path d="M70 0.464844H60V10.4649H70V0.464844Z" fill="#620000"/>
<path d="M80 0.464844H70V10.4649H80V0.464844Z" fill="#17232B"/>
<path d="M9.99998 10.4648H0V20.4649H9.99998V10.4648Z" fill="#073842"/>
<path d="M20 10.4648H10V20.4649H20V10.4648Z" fill="#0C424E"/>
<path d="M30 10.4648H20V20.4649H30V10.4648Z" fill="#620000"/>
<path d="M40 10.4648H30V20.4649H40V10.4648Z" fill="#0D3E49"/>
<path d="M50 10.4648H40V20.4649H50V10.4648Z" fill="#053440"/>
<path d="M60 10.4648H50V20.4649H60V10.4648Z" fill="#A60202"/>
<path d="M70 10.4648H60V20.4649H70V10.4648Z" fill="#17232B"/>
<path d="M80 10.4648H70V20.4649H80V10.4648Z" fill="#17232B"/>
<path d="M9.99998 20.4648H0V30.4649H9.99998V20.4648Z" fill="#A60202"/>
<path d="M20 20.4648H10V30.4649H20V20.4648Z" fill="#173740"/>
<path d="M30 20.4648H20V30.4649H30V20.4648Z" fill="#14414C"/>
<path d="M40 20.4648H30V30.4649H40V20.4648Z" fill="#14414C"/>
<path d="M50 20.4648H40V30.4649H50V20.4648Z" fill="#053440"/>
<path d="M60 20.4648H50V30.4649H60V20.4648Z" fill="#0D2F39"/>
<path d="M70 20.4648H60V30.4649H70V20.4648Z" fill="#17232B"/>
<path d="M80 20.4648H70V30.4649H80V20.4648Z" fill="#FF0E0E"/>
<path d="M9.99998 30.4648H0V40.4649H9.99998V30.4648Z" fill="#620000"/>
<path d="M20 30.4648H10V40.4649H20V30.4648Z" fill="#17323C"/>
<path d="M30 30.4648H20V40.4649H30V30.4648Z" fill="#FF0E0E"/>
<path d="M40 30.4648H30V40.4649H40V30.4648Z" fill="#A60202"/>
<path d="M50 30.4648H40V40.4649H50V30.4648Z" fill="#FF0E0E"/>
<path d="M60 30.4648H50V40.4649H60V30.4648Z" fill="#A60202"/>
<path d="M70 30.4648H60V40.4649H70V30.4648Z" fill="#1E1A20"/>
<path d="M80 30.4648H70V40.4649H80V30.4648Z" fill="#A60202"/>
<path d="M9.99998 40.4648H0V50.4649H9.99998V40.4648Z" fill="#06323C"/>
<path d="M20 40.4648H10V50.4649H20V40.4648Z" fill="#1B2D36"/>
<path d="M30 40.4648H20V50.4649H30V40.4648Z" fill="#A60202"/>
<path d="M40 40.4648H30V50.4649H40V40.4648Z" fill="#620000"/>
<path d="M50 40.4648H40V50.4649H50V40.4648Z" fill="#A60202"/>
<path d="M60 40.4648H50V50.4649H60V40.4648Z" fill="#620000"/>
<path d="M70 40.4648H60V50.4649H70V40.4648Z" fill="#101D26"/>
<path d="M80 40.4648H70V50.4649H80V40.4648Z" fill="#0D2830"/>
<path d="M9.99998 50.4648H0V60.4649H9.99998V50.4648Z" fill="#06323C"/>
<path d="M20 50.4648H10V60.4649H20V50.4648Z" fill="#0C323C"/>
<path d="M30 50.4648H20V60.4649H30V50.4648Z" fill="#123742"/>
<path d="M40 50.4648H30V60.4649H40V50.4648Z" fill="#032932"/>
<path d="M50 50.4648H40V60.4649H50V50.4648Z" fill="#04161C"/>
<path d="M60 50.4648H50V60.4649H60V50.4648Z" fill="#09323D"/>
<path d="M70 50.4648H60V60.4649H70V50.4648Z" fill="#06242D"/>
<path d="M80 50.4648H70V60.4649H80V50.4648Z" fill="#07313B"/>
<path d="M9.99998 60.4648H0V70.4649H9.99998V60.4648Z" fill="#06323C"/>
<path d="M20 60.4648H10V70.4649H20V60.4648Z" fill="#0D3E49"/>
<path d="M30 60.4648H20V70.4649H30V60.4648Z" fill="#05191E"/>
<path d="M40 60.4648H30V70.4649H40V60.4648Z" fill="#032932"/>
<path d="M50 60.4648H40V70.4649H50V60.4648Z" fill="#04161C"/>
<path d="M60 60.4648H50V70.4649H60V60.4648Z" fill="#05191E"/>
<path d="M70 60.4648H60V70.4649H70V60.4648Z" fill="#0D3E49"/>
<path d="M80 60.4648H70V70.4649H80V60.4648Z" fill="#073842"/>
<path d="M9.99998 70.4648H0V80.4649H9.99998V70.4648Z" fill="#06323C"/>
<path d="M20 70.4648H10V80.4649H20V70.4648Z" fill="#0C3944"/>
<path d="M30 70.4648H20V80.4649H30V70.4648Z" fill="#05191E"/>
<path d="M40 70.4648H30V80.4649H40V70.4648Z" fill="#032932"/>
<path d="M50 70.4648H40V80.4649H50V70.4648Z" fill="#00222C"/>
<path d="M60 70.4648H50V80.4649H60V70.4648Z" fill="#05191E"/>
<path d="M70 70.4648H60V80.4649H70V70.4648Z" fill="#134E5B"/>
<path d="M80 70.4648H70V80.4649H80V70.4648Z" fill="#03313B"/>
</svg>
