<?xml version="1.0" encoding="utf-8"?>
<svg viewBox="0 0 500 500" xmlns="http://www.w3.org/2000/svg">
  <g transform="matrix(0.1, 0, 0, -0.1, 7.419337, 496.761017)" fill="#ffffff" stroke="none">
    <path d="M2193 3784 c-562 -68 -997 -346 -1213 -774 -148 -294 -233 -737 -186 -970 69 -338 351 -610 826 -794 52 -21 104 -41 115 -45 16 -7 1 -14 -70 -37 -96 -30 -135 -58 -135 -98 0 -30 34 -56 72 -56 16 0 86 14 156 32 110 27 132 36 161 65 33 33 35 34 85 23 89 -18 323 -50 444 -60 182 -16 404 11 605 74 47 15 48 15 57 -8 5 -13 24 -35 42 -49 39 -30 190 -82 265 -92 47 -6 55 -4 77 18 49 49 8 91 -152 153 -51 20 -90 40 -85 44 4 4 35 17 68 30 76 28 205 93 264 133 25 17 78 62 117 101 293 293 388 759 263 1294 -121 522 -502 881 -1054 991 -216 43 -495 53 -722 25z m642 -144 c485 -97 843 -375 970 -752 51 -156 69 -299 70 -563 0 -217 -2 -248 -23 -329 -42 -166 -133 -328 -243 -432 -131 -123 -271 -193 -559 -279 -240 -71 -305 -80 -610 -78 -362 1 -488 20 -720 110 -433 167 -708 387 -789 630 -47 142 -50 279 -10 517 53 312 169 572 338 757 199 219 552 383 932 433 171 22 499 16 644 -14z" style="paint-order: fill; fill-rule: nonzero;"/>
    <path d="M2803 3285 c-29 -46 -141 -147 -203 -183 -82 -48 -303 -49 -382 -2 -25 14 -45 19 -59 15 -29 -10 -120 -95 -113 -106 8 -14 48 -11 70 6 26 20 57 19 110 -6 52 -23 200 -43 259 -34 115 18 248 94 351 201 48 50 68 64 91 64 33 0 53 16 53 42 0 12 -15 22 -52 33 -81 24 -93 21 -125 -30z" style=""/>
    <path d="M3377 2833 c-11 -11 -8 -62 7 -96 15 -36 117 -137 139 -137 27 0 81 46 108 90 38 64 43 93 20 121 -25 31 -50 18 -71 -37 -22 -57 -28 -64 -59 -64 -31 0 -74 40 -86 80 -13 43 -39 63 -58 43z" style=""/>
    <path d="M1421 2739 c-63 -103 -18 -229 81 -229 52 0 94 19 148 68 60 53 89 104 71 126 -8 9 -18 16 -23 16 -5 0 -42 -31 -83 -70 -76 -72 -114 -87 -143 -58 -15 15 -15 62 0 105 9 24 9 39 2 50 -18 28 -33 26 -53 -8z" style=""/>
  </g>
  <ellipse fill="#ffffff" cx="244.362" cy="172.986" rx="6.266" ry="6.054"/>
  <ellipse fill="#ffffff" cx="268.344" cy="164.406" rx="6.521" ry="6.137"/>
</svg>