<svg width="500" height="500" viewBox="0 0 500 500" fill="none" xmlns="http://www.w3.org/2000/svg">
<path d="M226.719 118.361C170.519 125.161 127.019 152.961 105.419 195.761C90.6193 225.161 82.1193 269.461 86.8193 292.761C93.7193 326.561 121.919 353.761 169.419 372.161C174.619 374.261 179.819 376.261 180.919 376.661C182.519 377.361 181.019 378.061 173.919 380.361C164.319 383.361 160.419 386.161 160.419 390.161C160.419 393.161 163.819 395.761 167.619 395.761C169.219 395.761 176.219 394.361 183.219 392.561C194.219 389.861 196.419 388.961 199.319 386.061C202.619 382.761 202.819 382.661 207.819 383.761C216.719 385.561 240.119 388.761 252.219 389.761C270.419 391.361 292.619 388.661 312.719 382.361C317.419 380.861 317.519 380.861 318.419 383.161C318.919 384.461 320.819 386.661 322.619 388.061C326.519 391.061 341.619 396.261 349.119 397.261C353.819 397.861 354.619 397.661 356.819 395.461C361.719 390.561 357.619 386.361 341.619 380.161C336.519 378.161 332.619 376.161 333.119 375.761C333.519 375.361 336.619 374.061 339.919 372.761C347.519 369.961 360.419 363.461 366.319 359.461C368.819 357.761 374.119 353.261 378.019 349.361C407.319 320.061 416.819 273.461 404.319 219.961C392.219 167.761 354.119 131.861 298.919 120.861C277.319 116.561 249.419 115.561 226.719 118.361ZM290.919 132.761C339.419 142.461 375.219 170.261 387.919 207.961C393.019 223.561 394.819 237.861 394.919 264.261C394.919 285.961 394.719 289.061 392.619 297.161C388.419 313.761 379.319 329.961 368.319 340.361C355.219 352.661 341.219 359.661 312.419 368.261C288.419 375.361 281.919 376.261 251.419 376.061C215.219 375.961 202.619 374.061 179.419 365.061C136.119 348.361 108.619 326.361 100.519 302.061C95.8193 287.861 95.5193 274.161 99.5193 250.361C104.819 219.161 116.419 193.161 133.319 174.661C153.219 152.761 188.519 136.361 226.519 131.361C243.619 129.161 276.419 129.761 290.919 132.761Z" fill="black"/>
<path d="M287.719 168.261C284.819 172.861 273.619 182.961 267.419 186.561C259.219 191.361 237.119 191.461 229.219 186.761C226.719 185.361 224.719 184.861 223.319 185.261C220.419 186.261 211.319 194.761 212.019 195.861C212.819 197.261 216.819 196.961 219.019 195.261C221.619 193.261 224.719 193.361 230.019 195.861C235.219 198.161 250.019 200.161 255.919 199.261C267.419 197.461 280.719 189.861 291.019 179.161C295.819 174.161 297.819 172.761 300.119 172.761C303.419 172.761 305.419 171.161 305.419 168.561C305.419 167.361 303.919 166.361 300.219 165.261C292.119 162.861 290.919 163.161 287.719 168.261Z" fill="black"/>
<path d="M345.119 213.461C344.019 214.561 344.319 219.661 345.819 223.061C347.319 226.661 357.519 236.761 359.719 236.761C362.419 236.761 367.819 232.161 370.519 227.761C374.319 221.361 374.819 218.461 372.519 215.661C370.019 212.561 367.519 213.861 365.419 219.361C363.219 225.061 362.619 225.761 359.519 225.761C356.419 225.761 352.119 221.761 350.919 217.761C349.619 213.461 347.019 211.461 345.119 213.461Z" fill="black"/>
<path d="M149.519 222.861C143.219 233.161 147.719 245.761 157.619 245.761C162.819 245.761 167.019 243.861 172.419 238.961C178.419 233.661 181.319 228.561 179.519 226.361C178.719 225.461 177.719 224.761 177.219 224.761C176.719 224.761 173.019 227.861 168.919 231.761C161.319 238.961 157.519 240.461 154.619 237.561C153.119 236.061 153.119 231.361 154.619 227.061C155.519 224.661 155.519 223.161 154.819 222.061C153.019 219.261 151.519 219.461 149.519 222.861Z" fill="black"/>
<path d="M244.362 179.04C247.823 179.04 250.628 176.329 250.628 172.986C250.628 169.642 247.823 166.932 244.362 166.932C240.901 166.932 238.096 169.642 238.096 172.986C238.096 176.329 240.901 179.04 244.362 179.04Z" fill="black"/>
<path d="M268.344 170.543C271.945 170.543 274.865 167.795 274.865 164.406C274.865 161.016 271.945 158.269 268.344 158.269C264.743 158.269 261.823 161.016 261.823 164.406C261.823 167.795 264.743 170.543 268.344 170.543Z" fill="black"/>
</svg>
